<?xml version="1.0" encoding="UTF-8" standalone="no"?>
<!-- Created with Inkscape (http://www.inkscape.org/) -->

<svg
   width="210.32201"
   height="68"
   viewBox="0 0 210.32201 68"
   version="1.1"
   id="SVGRoot"
   xmlns="http://www.w3.org/2000/svg"
   xmlns:svg="http://www.w3.org/2000/svg">
  <defs
     id="defs184" />
  <g
     id="layer1"
     transform="translate(-45.625233,-555.18323)">
    <path
       d="m 65.699731,589.83172 -11.23436,11.4877 v 16.1199 h -8.84014 v -62.2561 h 8.84014 v 34.8338 l 33.51886,-34.8338 h 10.1293 l -26.3362,27.9782 28.1779,34.2779 h -10.3135 z"
       fill="#ff6060"
       id="path38" />
    <path
       d="m 164.41423,612.43662 3.5,-6.6703 c 4.051,2.7793 10.313,4.8174 16.391,4.8174 7.919,0 11.05,-2.4087 11.05,-6.485 0,-10.5613 -29.652,-1.4823 -29.652,-20.1962 0,-8.5231 7.551,-14.0817 19.522,-14.0817 6.078,0 13.076,1.6676 17.128,4.2616 l -3.683,6.6703 c -4.236,-2.7793 -8.84,-3.7057 -13.445,-3.7057 -7.366,0 -11.05,2.7793 -11.05,6.485 0,11.1171 29.652,2.0381 29.652,20.3814 0,8.5232 -7.736,13.8965 -20.259,13.8965 -7.551,0.1853 -15.286,-2.2234 -19.154,-5.3733 z"
       fill="#ff6060"
       id="path40" />
    <path
       d="m 255.94723,588.90532 v 28.534 h -8.104 v -6.2997 c -2.762,4.2616 -8.103,6.6703 -15.47,6.6703 -10.682,0 -17.312,-5.7439 -17.312,-13.8965 0,-7.5967 4.788,-13.7111 18.785,-13.7111 h 13.445 v -1.6676 c 0,-7.2262 -4.236,-11.3025 -12.524,-11.3025 -5.525,0 -11.234,2.0382 -14.918,5.0028 l -3.499,-6.485 c 4.789,-3.891 11.787,-6.1145 19.338,-6.1145 13.076,0.1853 20.259,6.485 20.259,19.2698 z m -8.472,14.0817 v -6.6703 h -13.076 c -8.472,0 -10.866,3.3352 -10.866,7.2262 0,4.6321 3.867,7.5967 10.313,7.5967 6.446,0.1853 11.603,-2.594 13.629,-8.1526 z"
       fill="#ff6060"
       id="path42" />
    <path
       d="m 137.15753,605.02522 v 12.5994 l 5.3409,-3.1498 v -12.5995 z"
       fill="#ff6060"
       id="path44" />
    <path
       d="m 151.89123,589.64642 -21.9163,-12.7847 -12.1552,-7.0409 -11.9711,20.9373 0.1842,19.6404 21.732,12.7847 2.2101,-1.297 v -18.5286 l 9.7609,-17.2316 9.9454,5.7438 v 18.5287 l 2.21,-1.297 z"
       fill="#ff6060"
       id="path46" />
  </g>
</svg>
